<mxfile host="app.diagrams.net" modified="2024-01-24T08:13:49.742Z" agent="Mozilla/5.0 (Windows NT 10.0; Win64; x64) AppleWebKit/537.36 (KHTML, like Gecko) Chrome/120.0.0.0 Safari/537.36" etag="bcyoEJzf1K6m-oAKGuYC" version="23.0.0" type="github">
  <diagram name="第 1 页" id="VFCjEm5W6MaqiMix1aKl">
    <mxGraphModel dx="1876" dy="578" grid="1" gridSize="10" guides="1" tooltips="1" connect="1" arrows="1" fold="1" page="1" pageScale="1" pageWidth="827" pageHeight="1169" math="0" shadow="0">
      <root>
        <mxCell id="0" />
        <mxCell id="1" parent="0" />
        <mxCell id="O1jKtoPmyAMp938oBS-_-39" value="&lt;font color=&quot;#0000ff&quot; style=&quot;font-size: 14px;&quot;&gt;登入頁面&lt;/font&gt;" style="outlineConnect=0;gradientColor=none;html=1;whiteSpace=wrap;fontSize=12;fontStyle=0;strokeColor=#0000ff;fillColor=none;verticalAlign=top;align=center;fontColor=#FF9900;dashed=0;spacingTop=3;" parent="1" vertex="1">
          <mxGeometry x="-330" y="304.5" width="100" height="210" as="geometry" />
        </mxCell>
        <mxCell id="O1jKtoPmyAMp938oBS-_-8" value="" style="outlineConnect=0;gradientColor=none;html=1;whiteSpace=wrap;fontSize=12;fontStyle=0;strokeColor=#0000ff;fillColor=none;verticalAlign=top;align=center;fontColor=#FF9900;dashed=0;spacingTop=3;" parent="1" vertex="1">
          <mxGeometry x="-90" y="125" width="1220" height="605" as="geometry" />
        </mxCell>
        <mxCell id="VvQtCBpBmSeENk6v5BYq-13" style="edgeStyle=orthogonalEdgeStyle;rounded=0;orthogonalLoop=1;jettySize=auto;html=1;" parent="1" source="O1jKtoPmyAMp938oBS-_-39" edge="1">
          <mxGeometry relative="1" as="geometry">
            <mxPoint x="-180" y="409.5" as="targetPoint" />
          </mxGeometry>
        </mxCell>
        <mxCell id="O1jKtoPmyAMp938oBS-_-2" value="Admin&lt;br&gt;" style="sketch=0;outlineConnect=0;fontColor=#232F3E;gradientColor=none;strokeColor=#232F3E;fillColor=#ffffff;dashed=0;verticalLabelPosition=bottom;verticalAlign=top;align=center;html=1;fontSize=12;fontStyle=0;aspect=fixed;shape=mxgraph.aws4.resourceIcon;resIcon=mxgraph.aws4.user;" parent="1" vertex="1">
          <mxGeometry x="-280" y="379.5" width="50" height="50" as="geometry" />
        </mxCell>
        <mxCell id="fUSphoT4Lp9yBA-2n8Qe-2" style="edgeStyle=orthogonalEdgeStyle;rounded=0;orthogonalLoop=1;jettySize=auto;html=1;" edge="1" parent="1" source="O1jKtoPmyAMp938oBS-_-15" target="8HAPZSc-oPPEdkhKKwZJ-15">
          <mxGeometry relative="1" as="geometry">
            <Array as="points">
              <mxPoint x="150" y="670" />
              <mxPoint x="150" y="430" />
            </Array>
          </mxGeometry>
        </mxCell>
        <mxCell id="O1jKtoPmyAMp938oBS-_-15" value="管理資料庫" style="sketch=0;outlineConnect=0;fontColor=#232F3E;gradientColor=none;strokeColor=#232F3E;fillColor=#ffffff;dashed=0;verticalLabelPosition=bottom;verticalAlign=top;align=center;html=1;fontSize=12;fontStyle=0;aspect=fixed;shape=mxgraph.aws4.resourceIcon;resIcon=mxgraph.aws4.container_1;" parent="1" vertex="1">
          <mxGeometry x="328.75" y="635" width="40" height="40" as="geometry" />
        </mxCell>
        <mxCell id="O1jKtoPmyAMp938oBS-_-25" style="edgeStyle=orthogonalEdgeStyle;rounded=0;orthogonalLoop=1;jettySize=auto;html=1;exitX=0.5;exitY=1;exitDx=0;exitDy=0;" parent="1" edge="1">
          <mxGeometry relative="1" as="geometry">
            <mxPoint x="316.75" y="157.5" as="sourcePoint" />
            <mxPoint x="316.75" y="157.5" as="targetPoint" />
          </mxGeometry>
        </mxCell>
        <mxCell id="JR7BIPbjYZxuLrK9J2VT-17" style="edgeStyle=orthogonalEdgeStyle;rounded=0;orthogonalLoop=1;jettySize=auto;html=1;strokeWidth=1;" parent="1" source="O1jKtoPmyAMp938oBS-_-31" target="a6JBxLxwtquYG9cKJR-4-1" edge="1">
          <mxGeometry relative="1" as="geometry">
            <Array as="points">
              <mxPoint x="1000" y="670" />
              <mxPoint x="1000" y="670" />
            </Array>
          </mxGeometry>
        </mxCell>
        <mxCell id="O1jKtoPmyAMp938oBS-_-31" value="Amazon DynamoDB" style="sketch=0;outlineConnect=0;fontColor=#232F3E;gradientColor=none;strokeColor=#ffffff;fillColor=#232F3E;dashed=0;verticalLabelPosition=middle;verticalAlign=bottom;align=center;html=1;whiteSpace=wrap;fontSize=10;fontStyle=1;spacing=3;shape=mxgraph.aws4.productIcon;prIcon=mxgraph.aws4.dynamodb;" parent="1" vertex="1">
          <mxGeometry x="1060" y="635" width="50" height="90" as="geometry" />
        </mxCell>
        <mxCell id="O1jKtoPmyAMp938oBS-_-47" value="Amazon Rekognition" style="sketch=0;outlineConnect=0;fontColor=#232F3E;gradientColor=none;strokeColor=#ffffff;fillColor=#232F3E;dashed=0;verticalLabelPosition=middle;verticalAlign=bottom;align=center;html=1;whiteSpace=wrap;fontSize=10;fontStyle=1;spacing=3;shape=mxgraph.aws4.productIcon;prIcon=mxgraph.aws4.rekognition;" parent="1" vertex="1">
          <mxGeometry x="1516.25" y="204.5" width="50" height="80" as="geometry" />
        </mxCell>
        <mxCell id="JR7BIPbjYZxuLrK9J2VT-18" style="edgeStyle=orthogonalEdgeStyle;rounded=0;orthogonalLoop=1;jettySize=auto;html=1;strokeWidth=1;" parent="1" source="a6JBxLxwtquYG9cKJR-4-1" target="a6JBxLxwtquYG9cKJR-4-6" edge="1">
          <mxGeometry relative="1" as="geometry">
            <Array as="points">
              <mxPoint x="770" y="668" />
              <mxPoint x="770" y="668" />
            </Array>
          </mxGeometry>
        </mxCell>
        <mxCell id="a6JBxLxwtquYG9cKJR-4-1" value="AWS Lambda" style="sketch=0;outlineConnect=0;fontColor=#232F3E;gradientColor=none;strokeColor=#ffffff;fillColor=#232F3E;dashed=0;verticalLabelPosition=middle;verticalAlign=bottom;align=center;html=1;whiteSpace=wrap;fontSize=10;fontStyle=1;spacing=3;shape=mxgraph.aws4.productIcon;prIcon=mxgraph.aws4.lambda;" parent="1" vertex="1">
          <mxGeometry x="920" y="635" width="50" height="65" as="geometry" />
        </mxCell>
        <mxCell id="JR7BIPbjYZxuLrK9J2VT-19" style="edgeStyle=orthogonalEdgeStyle;rounded=0;orthogonalLoop=1;jettySize=auto;html=1;" parent="1" edge="1">
          <mxGeometry relative="1" as="geometry">
            <mxPoint x="659" y="667.08" as="sourcePoint" />
            <mxPoint x="372.25" y="667.08" as="targetPoint" />
            <Array as="points">
              <mxPoint x="540" y="667.08" />
              <mxPoint x="540" y="667.08" />
            </Array>
          </mxGeometry>
        </mxCell>
        <mxCell id="a6JBxLxwtquYG9cKJR-4-6" value="Amazon API Gateway" style="sketch=0;outlineConnect=0;fontColor=#232F3E;gradientColor=none;strokeColor=#ffffff;fillColor=#232F3E;dashed=0;verticalLabelPosition=middle;verticalAlign=bottom;align=center;html=1;whiteSpace=wrap;fontSize=10;fontStyle=1;spacing=3;shape=mxgraph.aws4.productIcon;prIcon=mxgraph.aws4.api_gateway;" parent="1" vertex="1">
          <mxGeometry x="659" y="635" width="50" height="90" as="geometry" />
        </mxCell>
        <mxCell id="a6JBxLxwtquYG9cKJR-4-8" value="" style="edgeStyle=orthogonalEdgeStyle;html=1;endArrow=openThin;elbow=vertical;startArrow=none;endFill=0;strokeColor=#545B64;rounded=0;strokeWidth=1;" parent="1" edge="1">
          <mxGeometry width="100" relative="1" as="geometry">
            <mxPoint x="383" y="648.5799999999999" as="sourcePoint" />
            <mxPoint x="659" y="648.5799999999999" as="targetPoint" />
            <Array as="points">
              <mxPoint x="520.75" y="648.5799999999999" />
              <mxPoint x="520.75" y="648.5799999999999" />
            </Array>
          </mxGeometry>
        </mxCell>
        <mxCell id="a6JBxLxwtquYG9cKJR-4-15" value="" style="edgeStyle=orthogonalEdgeStyle;html=1;endArrow=openThin;elbow=vertical;startArrow=none;endFill=0;strokeColor=#545B64;rounded=0;strokeWidth=1;" parent="1" source="a6JBxLxwtquYG9cKJR-4-6" target="a6JBxLxwtquYG9cKJR-4-1" edge="1">
          <mxGeometry width="100" relative="1" as="geometry">
            <mxPoint x="709" y="659.5" as="sourcePoint" />
            <mxPoint x="922.5" y="647" as="targetPoint" />
            <Array as="points">
              <mxPoint x="840" y="651" />
              <mxPoint x="840" y="651" />
            </Array>
          </mxGeometry>
        </mxCell>
        <mxCell id="pPQGrUG8o8pBh9T2TDlA-1" value="AWS Lambda" style="sketch=0;outlineConnect=0;fontColor=#232F3E;gradientColor=none;strokeColor=#ffffff;fillColor=#232F3E;dashed=0;verticalLabelPosition=middle;verticalAlign=bottom;align=center;html=1;whiteSpace=wrap;fontSize=10;fontStyle=1;spacing=3;shape=mxgraph.aws4.productIcon;prIcon=mxgraph.aws4.lambda;" parent="1" vertex="1">
          <mxGeometry x="1345.5" y="204.5" width="50" height="65" as="geometry" />
        </mxCell>
        <mxCell id="pPQGrUG8o8pBh9T2TDlA-9" style="edgeStyle=orthogonalEdgeStyle;rounded=0;orthogonalLoop=1;jettySize=auto;html=1;" parent="1" source="JR7BIPbjYZxuLrK9J2VT-2" target="O1jKtoPmyAMp938oBS-_-31" edge="1">
          <mxGeometry relative="1" as="geometry">
            <mxPoint x="1287" y="570" as="targetPoint" />
            <mxPoint x="538" y="380" as="sourcePoint" />
            <Array as="points">
              <mxPoint x="1085" y="553" />
            </Array>
          </mxGeometry>
        </mxCell>
        <mxCell id="pPQGrUG8o8pBh9T2TDlA-4" value="" style="edgeStyle=orthogonalEdgeStyle;html=1;endArrow=openThin;elbow=vertical;startArrow=none;endFill=0;strokeColor=#545B64;rounded=0;" parent="1" edge="1">
          <mxGeometry width="100" relative="1" as="geometry">
            <mxPoint x="1400.5" y="224" as="sourcePoint" />
            <mxPoint x="1516.25" y="224" as="targetPoint" />
          </mxGeometry>
        </mxCell>
        <mxCell id="pPQGrUG8o8pBh9T2TDlA-8" value="人臉辨識" style="text;html=1;strokeColor=none;fillColor=none;align=center;verticalAlign=middle;whiteSpace=wrap;rounded=0;" parent="1" vertex="1">
          <mxGeometry x="1429" y="199.5" width="60" height="30" as="geometry" />
        </mxCell>
        <mxCell id="pPQGrUG8o8pBh9T2TDlA-14" value="&lt;font style=&quot;font-size: 16px;&quot;&gt;後端&lt;/font&gt;" style="text;html=1;strokeColor=none;fillColor=none;align=center;verticalAlign=middle;whiteSpace=wrap;rounded=0;fontSize=16;fontColor=#0000ff;" parent="1" vertex="1">
          <mxGeometry x="160" y="126" width="230" height="30" as="geometry" />
        </mxCell>
        <mxCell id="pPQGrUG8o8pBh9T2TDlA-15" value="&lt;font style=&quot;font-size: 16px;&quot;&gt;前端&lt;/font&gt;" style="text;html=1;strokeColor=none;fillColor=none;align=center;verticalAlign=middle;whiteSpace=wrap;rounded=0;fontSize=16;fontColor=#0000ff;" parent="1" vertex="1">
          <mxGeometry x="-68" y="126" width="151.5" height="30" as="geometry" />
        </mxCell>
        <mxCell id="Vm1vwxEjEGVl82Kh1ue6-2" value="" style="edgeStyle=orthogonalEdgeStyle;html=1;endArrow=none;elbow=vertical;startArrow=openThin;startFill=0;strokeColor=#545B64;rounded=0;" parent="1" edge="1">
          <mxGeometry width="100" relative="1" as="geometry">
            <mxPoint x="1395.5" y="244" as="sourcePoint" />
            <mxPoint x="1513" y="244" as="targetPoint" />
          </mxGeometry>
        </mxCell>
        <mxCell id="Vm1vwxEjEGVl82Kh1ue6-3" value="回傳結果" style="text;html=1;strokeColor=none;fillColor=none;align=center;verticalAlign=middle;whiteSpace=wrap;rounded=0;" parent="1" vertex="1">
          <mxGeometry x="1408" y="239.5" width="102" height="30" as="geometry" />
        </mxCell>
        <mxCell id="Vm1vwxEjEGVl82Kh1ue6-5" value="存進資料庫" style="text;html=1;strokeColor=none;fillColor=none;align=center;verticalAlign=middle;whiteSpace=wrap;rounded=0;" parent="1" vertex="1">
          <mxGeometry x="540" y="530" width="90" height="30" as="geometry" />
        </mxCell>
        <mxCell id="Vm1vwxEjEGVl82Kh1ue6-13" value="資料查詢" style="sketch=0;outlineConnect=0;fontColor=#232F3E;gradientColor=none;strokeColor=#232F3E;fillColor=#ffffff;dashed=0;verticalLabelPosition=bottom;verticalAlign=top;align=center;html=1;fontSize=12;fontStyle=0;aspect=fixed;shape=mxgraph.aws4.resourceIcon;resIcon=mxgraph.aws4.container_1;" parent="1" vertex="1">
          <mxGeometry x="-20" y="532" width="40" height="40" as="geometry" />
        </mxCell>
        <mxCell id="8HAPZSc-oPPEdkhKKwZJ-7" value="AWS Lambda" style="sketch=0;outlineConnect=0;fontColor=#232F3E;gradientColor=none;strokeColor=#ffffff;fillColor=#232F3E;dashed=0;verticalLabelPosition=middle;verticalAlign=bottom;align=center;html=1;whiteSpace=wrap;fontSize=10;fontStyle=1;spacing=3;shape=mxgraph.aws4.productIcon;prIcon=mxgraph.aws4.lambda;" parent="1" vertex="1">
          <mxGeometry x="1345.5" y="334.5" width="50" height="65" as="geometry" />
        </mxCell>
        <mxCell id="8HAPZSc-oPPEdkhKKwZJ-8" value="" style="edgeStyle=orthogonalEdgeStyle;html=1;endArrow=openThin;elbow=vertical;startArrow=none;endFill=0;strokeColor=#545B64;rounded=0;" parent="1" edge="1">
          <mxGeometry width="100" relative="1" as="geometry">
            <mxPoint x="1400.5" y="354" as="sourcePoint" />
            <mxPoint x="1516.25" y="354" as="targetPoint" />
          </mxGeometry>
        </mxCell>
        <mxCell id="8HAPZSc-oPPEdkhKKwZJ-11" value="" style="edgeStyle=orthogonalEdgeStyle;html=1;endArrow=none;elbow=vertical;startArrow=openThin;startFill=0;strokeColor=#545B64;rounded=0;" parent="1" edge="1">
          <mxGeometry width="100" relative="1" as="geometry">
            <mxPoint x="1395.5" y="374" as="sourcePoint" />
            <mxPoint x="1513" y="374" as="targetPoint" />
          </mxGeometry>
        </mxCell>
        <mxCell id="8HAPZSc-oPPEdkhKKwZJ-12" value="回傳結果" style="text;html=1;strokeColor=none;fillColor=none;align=center;verticalAlign=middle;whiteSpace=wrap;rounded=0;" parent="1" vertex="1">
          <mxGeometry x="1408" y="369.5" width="102" height="30" as="geometry" />
        </mxCell>
        <mxCell id="8HAPZSc-oPPEdkhKKwZJ-14" value="行為辨識" style="text;html=1;strokeColor=none;fillColor=none;align=center;verticalAlign=middle;whiteSpace=wrap;rounded=0;" parent="1" vertex="1">
          <mxGeometry x="1425.5" y="329.5" width="60" height="30" as="geometry" />
        </mxCell>
        <mxCell id="8HAPZSc-oPPEdkhKKwZJ-21" value="" style="strokeWidth=2;html=1;shape=mxgraph.flowchart.annotation_2;align=left;labelPosition=right;pointerEvents=1;" parent="1" vertex="1">
          <mxGeometry x="140" y="160" width="70" height="490" as="geometry" />
        </mxCell>
        <mxCell id="8HAPZSc-oPPEdkhKKwZJ-57" style="edgeStyle=orthogonalEdgeStyle;rounded=0;orthogonalLoop=1;jettySize=auto;html=1;entryX=0;entryY=0.306;entryDx=0;entryDy=0;entryPerimeter=0;exitX=1.003;exitY=0.512;exitDx=0;exitDy=0;exitPerimeter=0;strokeWidth=1;" parent="1" edge="1">
          <mxGeometry relative="1" as="geometry">
            <mxPoint x="1060" y="650.7099999999999" as="targetPoint" />
            <Array as="points" />
            <mxPoint x="970.1642499999998" y="650.7899999999998" as="sourcePoint" />
          </mxGeometry>
        </mxCell>
        <mxCell id="VvQtCBpBmSeENk6v5BYq-1" value="Amazon SageMaker" style="sketch=0;outlineConnect=0;fontColor=#232F3E;gradientColor=none;strokeColor=#ffffff;fillColor=#232F3E;dashed=0;verticalLabelPosition=middle;verticalAlign=bottom;align=center;html=1;whiteSpace=wrap;fontSize=10;fontStyle=1;spacing=3;shape=mxgraph.aws4.productIcon;prIcon=mxgraph.aws4.sagemaker;" parent="1" vertex="1">
          <mxGeometry x="1516.25" y="339.5" width="50" height="90" as="geometry" />
        </mxCell>
        <mxCell id="JR7BIPbjYZxuLrK9J2VT-4" style="edgeStyle=orthogonalEdgeStyle;rounded=0;orthogonalLoop=1;jettySize=auto;html=1;" parent="1" source="Vm1vwxEjEGVl82Kh1ue6-8" target="-sES5BDnEpW2IbtICMvI-1" edge="1">
          <mxGeometry relative="1" as="geometry" />
        </mxCell>
        <mxCell id="Vm1vwxEjEGVl82Kh1ue6-8" value="Camera" style="sketch=0;outlineConnect=0;fontColor=#232F3E;gradientColor=none;strokeColor=#232F3E;fillColor=#ffffff;dashed=0;verticalLabelPosition=bottom;verticalAlign=top;align=center;html=1;fontSize=12;fontStyle=0;aspect=fixed;shape=mxgraph.aws4.resourceIcon;resIcon=mxgraph.aws4.camera;" parent="1" vertex="1">
          <mxGeometry x="-260" y="170" width="70" height="70" as="geometry" />
        </mxCell>
        <mxCell id="VvQtCBpBmSeENk6v5BYq-14" value="系統開/關" style="sketch=0;outlineConnect=0;fontColor=#232F3E;gradientColor=none;strokeColor=#232F3E;fillColor=#ffffff;dashed=0;verticalLabelPosition=bottom;verticalAlign=top;align=center;html=1;fontSize=12;fontStyle=0;aspect=fixed;shape=mxgraph.aws4.resourceIcon;resIcon=mxgraph.aws4.container_1;" parent="1" vertex="1">
          <mxGeometry x="-20" y="245" width="40" height="40" as="geometry" />
        </mxCell>
        <mxCell id="VvQtCBpBmSeENk6v5BYq-22" value="" style="endArrow=none;html=1;rounded=0;strokeColor=#0000ff;" parent="1" source="8HAPZSc-oPPEdkhKKwZJ-15" edge="1">
          <mxGeometry width="50" height="50" relative="1" as="geometry">
            <mxPoint x="111" y="690" as="sourcePoint" />
            <mxPoint x="115" y="125" as="targetPoint" />
            <Array as="points" />
          </mxGeometry>
        </mxCell>
        <mxCell id="VvQtCBpBmSeENk6v5BYq-24" value="" style="strokeWidth=2;html=1;shape=mxgraph.flowchart.annotation_2;align=left;labelPosition=right;pointerEvents=1;rotation=-180;" parent="1" vertex="1">
          <mxGeometry x="30" y="265" width="60" height="280" as="geometry" />
        </mxCell>
        <mxCell id="VvQtCBpBmSeENk6v5BYq-28" style="edgeStyle=orthogonalEdgeStyle;rounded=0;orthogonalLoop=1;jettySize=auto;html=1;" parent="1" edge="1">
          <mxGeometry relative="1" as="geometry">
            <mxPoint x="-130" y="409.3299999999999" as="sourcePoint" />
            <mxPoint x="-90" y="409" as="targetPoint" />
            <Array as="points">
              <mxPoint x="-110" y="409.53" />
            </Array>
          </mxGeometry>
        </mxCell>
        <mxCell id="8HAPZSc-oPPEdkhKKwZJ-27" value="Amazon API Gateway" style="sketch=0;outlineConnect=0;fontColor=#232F3E;gradientColor=none;strokeColor=#ffffff;fillColor=#232F3E;dashed=0;verticalLabelPosition=middle;verticalAlign=bottom;align=center;html=1;whiteSpace=wrap;fontSize=10;fontStyle=1;spacing=3;shape=mxgraph.aws4.productIcon;prIcon=mxgraph.aws4.api_gateway;" parent="1" vertex="1">
          <mxGeometry x="-180" y="367" width="50" height="90" as="geometry" />
        </mxCell>
        <mxCell id="VvQtCBpBmSeENk6v5BYq-33" value="" style="line;strokeWidth=4;direction=south;html=1;perimeter=backbonePerimeter;points=[];outlineConnect=0;" parent="1" vertex="1">
          <mxGeometry x="1366" y="264.5" width="10" height="70" as="geometry" />
        </mxCell>
        <mxCell id="VvQtCBpBmSeENk6v5BYq-34" value="" style="endArrow=none;html=1;rounded=0;strokeColor=#0000ff;" parent="1" edge="1">
          <mxGeometry width="50" height="50" relative="1" as="geometry">
            <mxPoint x="115" y="730" as="sourcePoint" />
            <mxPoint x="115.04999999999995" y="474" as="targetPoint" />
            <Array as="points">
              <mxPoint x="115.25" y="505" />
              <mxPoint x="115" y="440" />
            </Array>
          </mxGeometry>
        </mxCell>
        <mxCell id="fUSphoT4Lp9yBA-2n8Qe-6" style="edgeStyle=orthogonalEdgeStyle;rounded=0;orthogonalLoop=1;jettySize=auto;html=1;" edge="1" parent="1" source="8HAPZSc-oPPEdkhKKwZJ-15" target="Vm1vwxEjEGVl82Kh1ue6-13">
          <mxGeometry relative="1" as="geometry">
            <Array as="points">
              <mxPoint x="80" y="430" />
              <mxPoint x="80" y="560" />
            </Array>
          </mxGeometry>
        </mxCell>
        <mxCell id="8HAPZSc-oPPEdkhKKwZJ-15" value="Amazon API Gateway" style="sketch=0;outlineConnect=0;fontColor=#232F3E;gradientColor=none;strokeColor=#ffffff;fillColor=#232F3E;dashed=0;verticalLabelPosition=middle;verticalAlign=bottom;align=center;html=1;whiteSpace=wrap;fontSize=10;fontStyle=1;spacing=3;shape=mxgraph.aws4.productIcon;prIcon=mxgraph.aws4.api_gateway;" parent="1" vertex="1">
          <mxGeometry x="90" y="384.5" width="50" height="90" as="geometry" />
        </mxCell>
        <mxCell id="JR7BIPbjYZxuLrK9J2VT-5" style="edgeStyle=orthogonalEdgeStyle;rounded=0;orthogonalLoop=1;jettySize=auto;html=1;" parent="1" source="-sES5BDnEpW2IbtICMvI-1" target="-sES5BDnEpW2IbtICMvI-23" edge="1">
          <mxGeometry relative="1" as="geometry">
            <Array as="points">
              <mxPoint x="310" y="405" />
              <mxPoint x="310" y="405" />
            </Array>
          </mxGeometry>
        </mxCell>
        <mxCell id="-sES5BDnEpW2IbtICMvI-1" value="Amazon Kinesis Video Streams" style="sketch=0;outlineConnect=0;fontColor=#232F3E;gradientColor=none;strokeColor=#ffffff;fillColor=#232F3E;dashed=0;verticalLabelPosition=middle;verticalAlign=bottom;align=center;html=1;whiteSpace=wrap;fontSize=10;fontStyle=1;spacing=3;shape=mxgraph.aws4.productIcon;prIcon=mxgraph.aws4.kinesis_video_streams;" parent="1" vertex="1">
          <mxGeometry x="201.25" y="384.5" width="47.5" height="100" as="geometry" />
        </mxCell>
        <mxCell id="-sES5BDnEpW2IbtICMvI-9" value="開啟Camera" style="sketch=0;outlineConnect=0;fontColor=#232F3E;gradientColor=none;strokeColor=#232F3E;fillColor=#ffffff;dashed=0;verticalLabelPosition=bottom;verticalAlign=top;align=center;html=1;fontSize=12;fontStyle=0;aspect=fixed;shape=mxgraph.aws4.resourceIcon;resIcon=mxgraph.aws4.container_1;" parent="1" vertex="1">
          <mxGeometry x="-20" y="384" width="40" height="40" as="geometry" />
        </mxCell>
        <mxCell id="-sES5BDnEpW2IbtICMvI-12" value="" style="line;strokeWidth=2;fillColor=none;align=left;verticalAlign=middle;spacingTop=-1;spacingLeft=3;spacingRight=3;rotatable=0;labelPosition=right;points=[];portConstraint=eastwest;strokeColor=inherit;" parent="1" vertex="1">
          <mxGeometry x="20" y="400.5" width="40" height="8" as="geometry" />
        </mxCell>
        <mxCell id="-sES5BDnEpW2IbtICMvI-15" value="" style="line;strokeWidth=2;fillColor=none;align=left;verticalAlign=middle;spacingTop=-1;spacingLeft=3;spacingRight=3;rotatable=0;labelPosition=right;points=[];portConstraint=eastwest;strokeColor=inherit;" parent="1" vertex="1">
          <mxGeometry x="180" y="646" width="147" height="8" as="geometry" />
        </mxCell>
        <mxCell id="-sES5BDnEpW2IbtICMvI-18" style="edgeStyle=orthogonalEdgeStyle;rounded=0;orthogonalLoop=1;jettySize=auto;html=1;exitX=1;exitY=0;exitDx=0;exitDy=0;exitPerimeter=0;strokeWidth=2;strokeColor=#ff0000;" parent="1" source="-sES5BDnEpW2IbtICMvI-17" edge="1">
          <mxGeometry relative="1" as="geometry">
            <mxPoint x="1341" y="241.78571428571433" as="targetPoint" />
          </mxGeometry>
        </mxCell>
        <mxCell id="-sES5BDnEpW2IbtICMvI-19" style="edgeStyle=orthogonalEdgeStyle;rounded=0;orthogonalLoop=1;jettySize=auto;html=1;exitX=1;exitY=1;exitDx=0;exitDy=0;exitPerimeter=0;strokeWidth=2;strokeColor=#ff0000;" parent="1" source="-sES5BDnEpW2IbtICMvI-17" edge="1">
          <mxGeometry relative="1" as="geometry">
            <mxPoint x="1341" y="369.5" as="targetPoint" />
          </mxGeometry>
        </mxCell>
        <mxCell id="-sES5BDnEpW2IbtICMvI-17" value="" style="strokeWidth=2;html=1;shape=mxgraph.flowchart.annotation_2;align=left;labelPosition=right;pointerEvents=1;strokeColor=#ff0000;" parent="1" vertex="1">
          <mxGeometry x="1270" y="242" width="38" height="127.5" as="geometry" />
        </mxCell>
        <mxCell id="JR7BIPbjYZxuLrK9J2VT-6" style="edgeStyle=orthogonalEdgeStyle;rounded=0;orthogonalLoop=1;jettySize=auto;html=1;" parent="1" source="-sES5BDnEpW2IbtICMvI-23" target="-sES5BDnEpW2IbtICMvI-25" edge="1">
          <mxGeometry relative="1" as="geometry" />
        </mxCell>
        <mxCell id="-sES5BDnEpW2IbtICMvI-23" value="Amazon Rekognition Video" style="sketch=0;outlineConnect=0;fontColor=#232F3E;gradientColor=none;strokeColor=#ffffff;fillColor=#232F3E;dashed=0;verticalLabelPosition=middle;verticalAlign=bottom;align=center;html=1;whiteSpace=wrap;fontSize=10;fontStyle=1;spacing=3;shape=mxgraph.aws4.productIcon;prIcon=mxgraph.aws4.rekognition_video;" parent="1" vertex="1">
          <mxGeometry x="332.25" y="380" width="50" height="100" as="geometry" />
        </mxCell>
        <mxCell id="JR7BIPbjYZxuLrK9J2VT-13" style="edgeStyle=orthogonalEdgeStyle;rounded=0;orthogonalLoop=1;jettySize=auto;html=1;" parent="1" source="-sES5BDnEpW2IbtICMvI-25" target="JR7BIPbjYZxuLrK9J2VT-2" edge="1">
          <mxGeometry relative="1" as="geometry">
            <Array as="points">
              <mxPoint x="420" y="550" />
              <mxPoint x="420" y="550" />
            </Array>
          </mxGeometry>
        </mxCell>
        <mxCell id="-sES5BDnEpW2IbtICMvI-25" value="Amazon Kinesis Data Streams" style="sketch=0;outlineConnect=0;fontColor=#232F3E;gradientColor=none;strokeColor=#ffffff;fillColor=#232F3E;dashed=0;verticalLabelPosition=middle;verticalAlign=bottom;align=center;html=1;whiteSpace=wrap;fontSize=10;fontStyle=1;spacing=3;shape=mxgraph.aws4.productIcon;prIcon=mxgraph.aws4.kinesis_data_streams;" parent="1" vertex="1">
          <mxGeometry x="332.25" y="532" width="50" height="105" as="geometry" />
        </mxCell>
        <mxCell id="fUSphoT4Lp9yBA-2n8Qe-10" style="edgeStyle=orthogonalEdgeStyle;rounded=0;orthogonalLoop=1;jettySize=auto;html=1;" edge="1" parent="1" source="JR7BIPbjYZxuLrK9J2VT-2" target="fUSphoT4Lp9yBA-2n8Qe-8">
          <mxGeometry relative="1" as="geometry">
            <Array as="points">
              <mxPoint x="475" y="400" />
            </Array>
          </mxGeometry>
        </mxCell>
        <mxCell id="JR7BIPbjYZxuLrK9J2VT-2" value="AWS Lambda" style="sketch=0;outlineConnect=0;fontColor=#232F3E;gradientColor=none;strokeColor=#ffffff;fillColor=#232F3E;dashed=0;verticalLabelPosition=middle;verticalAlign=bottom;align=center;html=1;whiteSpace=wrap;fontSize=10;fontStyle=1;spacing=3;shape=mxgraph.aws4.productIcon;prIcon=mxgraph.aws4.lambda;" parent="1" vertex="1">
          <mxGeometry x="450" y="530" width="50" height="65" as="geometry" />
        </mxCell>
        <mxCell id="JR7BIPbjYZxuLrK9J2VT-10" value="" style="line;strokeWidth=2;fillColor=none;align=left;verticalAlign=middle;spacingTop=-1;spacingLeft=3;spacingRight=3;rotatable=0;labelPosition=right;points=[];portConstraint=eastwest;strokeColor=inherit;" parent="1" vertex="1">
          <mxGeometry x="175.25" y="401" width="26" height="8" as="geometry" />
        </mxCell>
        <mxCell id="JR7BIPbjYZxuLrK9J2VT-11" value="Live video" style="text;html=1;strokeColor=none;fillColor=none;align=center;verticalAlign=middle;whiteSpace=wrap;rounded=0;" parent="1" vertex="1">
          <mxGeometry x="-190" y="180" width="60" height="30" as="geometry" />
        </mxCell>
        <mxCell id="JR7BIPbjYZxuLrK9J2VT-12" value="Video stream" style="text;html=1;strokeColor=none;fillColor=none;align=center;verticalAlign=middle;whiteSpace=wrap;rounded=0;" parent="1" vertex="1">
          <mxGeometry x="248.75" y="380" width="80" height="30" as="geometry" />
        </mxCell>
        <mxCell id="JR7BIPbjYZxuLrK9J2VT-14" value="analyisis data" style="text;html=1;strokeColor=none;fillColor=none;align=center;verticalAlign=middle;whiteSpace=wrap;rounded=0;rotation=90;" parent="1" vertex="1">
          <mxGeometry x="354" y="490" width="60" height="30" as="geometry" />
        </mxCell>
        <mxCell id="fUSphoT4Lp9yBA-2n8Qe-11" style="edgeStyle=orthogonalEdgeStyle;rounded=0;orthogonalLoop=1;jettySize=auto;html=1;" edge="1" parent="1" source="fUSphoT4Lp9yBA-2n8Qe-8">
          <mxGeometry relative="1" as="geometry">
            <mxPoint x="650" y="400" as="targetPoint" />
            <Array as="points">
              <mxPoint x="620" y="400" />
              <mxPoint x="620" y="400" />
            </Array>
          </mxGeometry>
        </mxCell>
        <mxCell id="fUSphoT4Lp9yBA-2n8Qe-8" value="Amazon SQS" style="sketch=0;outlineConnect=0;fontColor=#232F3E;gradientColor=none;strokeColor=#ffffff;fillColor=#232F3E;dashed=0;verticalLabelPosition=middle;verticalAlign=bottom;align=center;html=1;whiteSpace=wrap;fontSize=10;fontStyle=1;spacing=3;shape=mxgraph.aws4.productIcon;prIcon=mxgraph.aws4.sqs;" vertex="1" parent="1">
          <mxGeometry x="540" y="377" width="50" height="80" as="geometry" />
        </mxCell>
        <mxCell id="fUSphoT4Lp9yBA-2n8Qe-12" value="Amazon SNS" style="sketch=0;outlineConnect=0;fontColor=#232F3E;gradientColor=none;strokeColor=#ffffff;fillColor=#232F3E;dashed=0;verticalLabelPosition=middle;verticalAlign=bottom;align=center;html=1;whiteSpace=wrap;fontSize=10;fontStyle=1;spacing=3;shape=mxgraph.aws4.productIcon;prIcon=mxgraph.aws4.sns;" vertex="1" parent="1">
          <mxGeometry x="650" y="379.5" width="50" height="80.5" as="geometry" />
        </mxCell>
        <mxCell id="fUSphoT4Lp9yBA-2n8Qe-13" value="Text" style="text;html=1;strokeColor=none;fillColor=none;align=center;verticalAlign=middle;whiteSpace=wrap;rounded=0;" vertex="1" parent="1">
          <mxGeometry x="460" y="371" width="60" height="30" as="geometry" />
        </mxCell>
      </root>
    </mxGraphModel>
  </diagram>
</mxfile>
